<svg viewBox="0 0 797 797" xmlns="http://www.w3.org/2000/svg" xmlns:serif="http://www.serif.com/" fill-rule="evenodd" clip-rule="evenodd" stroke-linejoin="round" stroke-miterlimit="2"><g serif:id="San Pueblo Logo - curves fill"><circle cx="398" cy="399" r="397.11" fill="#9e001c"/><circle cx="398" cy="399" r="301.831" fill="#fff"/><path d="M398.49 95.669c63.2.15 126.131 20.509 177.28 57.591 77.437 56.14 126.173 149.874 125.555 247.7-.527 83.519-37.295 166.409-100.09 223.143-54.959 49.655-128.497 78.111-202.745 78.228-73.837.116-147.314-27.858-202.371-77.012C133.112 569.067 95.084 486.17 94.672 400.471c-.361-75.105 28.259-149.737 78.836-205.38 56.153-61.777 138.583-98.817 222.532-99.416.817-.005 1.633-.007 2.45-.006zm-.976 3c-62.326.147-124.331 20.136-174.791 56.491-68.313 49.217-114.548 127.744-123.405 212.204-8.104 77.284 14.809 156.79 62.999 217.717 44.159 55.829 108.781 95.431 178.859 108.872 72.627 13.93 150.264-.034 213.279-38.598 63.085-38.607 111.211-101.083 131.964-172.396 24.408-83.876 10.14-178.041-38.903-251.077-50.49-75.192-135.467-125.698-227.374-132.408a307.03 307.03 0 0 0-22.628-.805z"/><path d="M398.643.916c76.845.183 154.334 23.248 218.879 66.026 87.521 58.006 150.894 151.475 171.199 255.522 16.209 83.065 5.218 171.442-31.395 247.971-41.81 87.391-116.494 158.599-206.111 196.05-96.223 40.211-207.796 40.86-305.311.465-89.586-37.109-164.648-108.195-206.707-195.427-44.353-91.989-51.349-201.722-18.74-298.987C55.248 168.761 134.961 80.656 235.339 35.608 285.67 13.02 340.479 1.229 396.07.92c.858-.003 1.716-.005 2.573-.004zm-1.282 2.989c-75.609.179-151.895 22.639-215.742 64.546-87.697 57.56-151.006 150.871-171.288 253.981-16.251 82.623-5.327 170.4 30.781 246.172 41.45 86.985 115.802 157.915 204.825 195.123 95.638 39.972 206.787 40.324 303.015.462 88.722-36.752 163.271-107.088 205.159-193.964 43.856-90.958 51.04-198.96 18.982-295.59C733.854 156.362 636.269 59.296 515.435 21.679c-37.35-11.627-76.66-17.555-115.519-17.77-.852-.004-1.703-.005-2.555-.004z" fill="#fff"/><g serif:id="Round text" fill="#fff" fill-rule="nonzero"><path serif:id="Pueblo de San Ildefonso" d="M745.713 357.647c-4.75.946-9.157 1.258-13.22.936-4.063-.322-7.667-1.301-10.813-2.937-3.146-1.636-5.784-3.963-7.914-6.98-2.13-3.017-3.635-6.732-4.514-11.145-.879-4.413-.937-8.345-.174-11.795.763-3.45 2.236-6.451 4.42-9.005 2.184-2.554 5.049-4.686 8.596-6.396 3.547-1.71 7.665-3.032 12.354-3.966 4.659-.928 8.995-1.234 13.009-.918 4.014.316 7.58 1.303 10.698 2.96 3.118 1.657 5.741 3.987 7.868 6.989 2.127 3.001 3.633 6.724 4.518 11.168.861 4.322.916 8.198.166 11.629-.751 3.432-2.207 6.438-4.37 9.02-2.162 2.581-4.983 4.736-8.463 6.465-3.479 1.728-7.533 3.053-12.161 3.975zm-1.696-5.876c3.525-.702 6.762-1.689 9.711-2.961 2.949-1.273 5.414-2.895 7.395-4.867 1.981-1.971 3.373-4.344 4.175-7.116.802-2.773.833-6.013.095-9.722-.732-3.677-2.032-6.645-3.9-8.902-1.867-2.256-4.107-3.945-6.72-5.066-2.613-1.12-5.521-1.72-8.723-1.8-3.202-.079-6.504.22-9.906.898-3.616.72-6.918 1.704-9.903 2.952-2.986 1.248-5.478 2.851-7.478 4.811-2 1.959-3.4 4.325-4.202 7.098-.803 2.772-.828 6.043-.077 9.813.744 3.739 2.067 6.742 3.968 9.008 1.901 2.266 4.18 3.947 6.835 5.043 2.656 1.096 5.591 1.675 8.806 1.736 3.214.061 6.522-.248 9.924-.925zm-692.9-48.075c2.743.618 5.154 1.65 7.231 3.095 2.076 1.445 3.742 3.222 4.997 5.33 1.255 2.109 2.058 4.516 2.409 7.222.351 2.706.128 5.827-.668 9.364l-1.731 7.682 22.635 5.1a.985.985 0 0 1 .472.251c.132.126.22.306.263.54.044.234.056.533.038.897a8.404 8.404 0 0 1-.212 1.37 8.372 8.372 0 0 1-.391 1.305 3.973 3.973 0 0 1-.424.818c-.14.192-.296.317-.469.374a.987.987 0 0 1-.534.024L29.356 334.59c-1.098-.247-1.787-.707-2.068-1.379-.281-.672-.36-1.282-.236-1.831l2.71-12.026c.268-1.189.582-2.336.943-3.44.361-1.103.887-2.37 1.577-3.8.691-1.431 1.693-2.822 3.007-4.176a15.466 15.466 0 0 1 4.423-3.208c1.634-.785 3.41-1.274 5.328-1.466 1.917-.193 3.943-.049 6.077.432zm-.827 6.012c-2.56-.577-4.846-.563-6.856.041s-3.613 1.533-4.808 2.785c-1.195 1.252-2.084 2.638-2.666 4.156a31.869 31.869 0 0 0-1.348 4.381l-1.895 8.414 25.699 5.791 1.813-8.048c.584-2.591.744-4.83.48-6.715-.264-1.885-.841-3.553-1.731-5.003-.891-1.45-2.081-2.671-3.571-3.664-1.491-.992-3.196-1.705-5.117-2.138zm669.116-4.624c-2.532.903-4.961 1.256-7.288 1.058a15.358 15.358 0 0 1-6.469-2.022c-1.987-1.149-3.752-2.726-5.296-4.729-1.545-2.004-2.795-4.345-3.751-7.023-.651-1.825-1.096-3.607-1.335-5.347-.24-1.739-.35-3.326-.33-4.759.019-1.434.116-2.672.292-3.713.176-1.042.375-1.785.598-2.229.223-.445.537-.822.94-1.132.404-.31.944-.586 1.621-.827a7.466 7.466 0 0 1 1.268-.353c.345-.057.638-.071.881-.041.243.029.43.112.561.248.132.135.229.291.292.468.147.412.097 1.085-.15 2.02-.248.934-.46 2.105-.638 3.512s-.228 3.034-.15 4.881c.079 1.847.512 3.874 1.299 6.081.641 1.796 1.472 3.357 2.493 4.685 1.022 1.328 2.183 2.373 3.484 3.137a9.941 9.941 0 0 0 4.283 1.333c1.555.125 3.185-.117 4.892-.726 1.766-.63 3.146-1.553 4.138-2.77.993-1.217 1.744-2.622 2.254-4.214.51-1.592.872-3.322 1.084-5.19.213-1.867.413-3.772.599-5.713.187-1.941.453-3.869.798-5.784a22.398 22.398 0 0 1 1.68-5.403 15.378 15.378 0 0 1 3.226-4.56c1.375-1.354 3.196-2.435 5.462-3.243 2.207-.788 4.328-1.097 6.363-.927 2.035.169 3.92.757 5.656 1.764 1.737 1.006 3.288 2.402 4.655 4.187 1.367 1.785 2.481 3.884 3.342 6.297.431 1.207.749 2.471.955 3.791.205 1.32.321 2.597.347 3.832a21.15 21.15 0 0 1-.18 3.399c-.147 1.032-.31 1.737-.49 2.116-.179.38-.322.63-.429.75a2.546 2.546 0 0 1-.436.38 4.536 4.536 0 0 1-.682.393c-.269.129-.609.267-1.021.414a7.797 7.797 0 0 1-1.061.304 3.68 3.68 0 0 1-.866.085 1.392 1.392 0 0 1-.626-.15.717.717 0 0 1-.342-.4c-.115-.324-.078-.893.112-1.708a36.41 36.41 0 0 0 .545-3.006c.173-1.19.226-2.553.159-4.088-.067-1.536-.416-3.187-1.046-4.953-.619-1.736-1.396-3.168-2.329-4.295-.933-1.127-1.956-1.973-3.07-2.537a8.28 8.28 0 0 0-3.533-.904 9.92 9.92 0 0 0-3.672.588c-1.766.63-3.145 1.554-4.138 2.771-.992 1.217-1.748 2.631-2.268 4.243-.52 1.613-.883 3.36-1.091 5.242a427.235 427.235 0 0 0-.591 5.736 80.882 80.882 0 0 1-.768 5.798 22.027 22.027 0 0 1-1.642 5.439 15.258 15.258 0 0 1-3.195 4.574c-1.361 1.348-3.16 2.422-5.396 3.22zM89.691 258.25c3.442 1.322 6.318 2.987 8.626 4.995 2.309 2.008 4.035 4.269 5.178 6.784 1.144 2.514 1.696 5.237 1.659 8.168-.038 2.932-.667 5.987-1.889 9.167-1.109 2.888-2.583 5.377-4.423 7.465-1.84 2.089-3.981 3.677-6.424 4.764-2.442 1.087-5.157 1.618-8.143 1.593-2.986-.025-6.186-.693-9.599-2.004l-35.533-13.645a.977.977 0 0 1-.431-.316c-.112-.144-.17-.342-.174-.594-.003-.252.028-.55.092-.893.065-.344.199-.778.4-1.303.191-.496.382-.908.575-1.236.193-.327.372-.576.538-.747.166-.171.339-.272.518-.303a.98.98 0 0 1 .532.053l34.658 13.309c2.829 1.087 5.441 1.696 7.834 1.828 2.393.133 4.546-.179 6.459-.934 1.913-.754 3.583-1.921 5.009-3.499 1.426-1.578 2.588-3.534 3.484-5.868.907-2.363 1.374-4.602 1.4-6.718.025-2.116-.415-4.084-1.323-5.906-.907-1.821-2.272-3.475-4.095-4.961-1.822-1.487-4.134-2.768-6.935-3.843L52.72 250.179a.974.974 0 0 1-.43-.316c-.113-.143-.173-.334-.182-.572-.01-.238.024-.543.1-.915.076-.373.209-.807.4-1.303a8.31 8.31 0 0 1 .575-1.235 3.97 3.97 0 0 1 .538-.748c.166-.17.338-.271.518-.303a.992.992 0 0 1 .532.054l34.92 13.409zm602.678 12.097c-.498.263-.952.406-1.364.429a2.69 2.69 0 0 1-1.115-.154 2.269 2.269 0 0 1-.851-.558 3.338 3.338 0 0 1-.551-.742l-.547-1.037a5.845 5.845 0 0 1-.591-1.622 4.431 4.431 0 0 1 .025-1.71c.119-.61.356-1.283.71-2.018.354-.734.849-1.605 1.483-2.612l23.515-36.584a354.332 354.332 0 0 1 3.538-5.499 319.568 319.568 0 0 1 3.603-5.374l-.022-.041a522.414 522.414 0 0 1-6.175 3.313l-6.197 3.271-34.738 18.339a.98.98 0 0 1-.522.116c-.182-.01-.365-.089-.55-.239a3.994 3.994 0 0 1-.612-.658 8.298 8.298 0 0 1-.729-1.179 8.403 8.403 0 0 1-.552-1.246 4.006 4.006 0 0 1-.208-.897c-.019-.237.018-.433.113-.589a.974.974 0 0 1 .39-.365l50.2-26.502c.995-.525 1.817-.623 2.468-.295.65.328 1.106.741 1.369 1.238l1.094 2.073c.35.663.587 1.245.71 1.745.122.501.147 1 .075 1.498-.073.498-.26 1.047-.562 1.648a22.227 22.227 0 0 1-1.242 2.114l-18.022 28.013a462.43 462.43 0 0 1-3.255 5.031 903.08 903.08 0 0 1-3.094 4.681 1155.493 1155.493 0 0 0-2.993 4.522 328.613 328.613 0 0 1-2.994 4.469l.022.042a681.142 681.142 0 0 1 7.232-3.871l7.255-3.83 31.214-16.478a.977.977 0 0 1 .521-.117c.182.01.373.086.572.229.198.142.402.361.612.657.209.296.445.693.707 1.19.234.442.417.84.551 1.194.134.353.203.652.209.897.005.244-.036.451-.123.621a.884.884 0 0 1-.379.386l-50.2 26.501zm-562.981-42.894c.352.202.649.408.889.618.24.209.42.429.54.66.12.231.181.455.182.672.002.217-.051.42-.16.61l-14.119 24.649c-.279.488-.75.885-1.411 1.191-.661.305-1.48.178-2.456-.381L65.344 228.26c-.976-.559-1.499-1.201-1.57-1.926-.071-.725.033-1.331.313-1.819l13.909-24.283c.108-.19.257-.339.445-.448.188-.108.408-.162.66-.162.252 0 .536.055.851.164.316.109.664.272 1.044.489.352.202.648.408.889.617.24.21.417.42.531.629.114.209.172.423.174.64.001.217-.052.42-.161.61L70.058 224.37l18.507 10.6 10.671-18.629c.124-.217.28-.38.468-.488.188-.108.401-.166.64-.174.238-.007.515.043.831.152.316.109.664.272 1.043.49.353.202.642.403.869.605.226.202.39.404.491.605.1.202.144.408.133.617-.012.209-.08.422-.205.639l-10.67 18.629 20.988 12.022 12.581-21.964c.109-.19.257-.339.446-.448.188-.108.405-.173.651-.194.246-.021.527.023.843.132.316.109.663.272 1.043.489zm15.598-45.236c1.414 1.083 2.601 2.257 3.56 3.523.959 1.266 1.698 2.589 2.215 3.969.518 1.381.819 2.812.904 4.294a16.812 16.812 0 0 1-.368 4.529 20.546 20.546 0 0 1-1.598 4.593c-.734 1.524-1.766 3.154-3.095 4.891l-9.547 12.468c-.342.446-.861.777-1.557.992-.696.215-1.49-.019-2.384-.703l-43.47-33.285c-.893-.684-1.327-1.39-1.301-2.118.026-.728.21-1.315.552-1.762l7.922-10.346c2.147-2.804 4.171-4.856 6.071-6.156 1.901-1.3 3.811-2.11 5.73-2.432 1.918-.321 3.842-.187 5.771.405 1.928.591 3.811 1.589 5.647 2.995a16.96 16.96 0 0 1 2.976 2.899 13.91 13.91 0 0 1 2.005 3.395c.494 1.205.802 2.473.923 3.806.121 1.333.021 2.722-.299 4.169a14.074 14.074 0 0 1 4.188-2.579 14.462 14.462 0 0 1 4.881-1.015c1.697-.058 3.425.192 5.182.75 1.757.558 3.454 1.464 5.092 2.718zm545.788 25.995c-3.833 2.962-7.64 5.203-11.422 6.724-3.781 1.52-7.444 2.248-10.99 2.184-3.545-.065-6.942-.974-10.193-2.727-3.251-1.753-6.252-4.41-9.004-7.971-2.751-3.56-4.554-7.055-5.406-10.484-.853-3.428-.87-6.772-.052-10.031.819-3.259 2.436-6.444 4.85-9.554 2.415-3.11 5.514-6.127 9.297-9.051 3.759-2.904 7.505-5.109 11.24-6.613 3.735-1.504 7.367-2.208 10.897-2.112 3.53.096 6.916 1.014 10.157 2.755 3.241 1.741 6.247 4.404 9.018 7.989 2.694 3.487 4.469 6.933 5.325 10.34.855 3.407.889 6.747.102 10.021-.787 3.274-2.354 6.46-4.7 9.557-2.346 3.096-5.386 6.088-9.119 8.973zM141.653 187.34c-1.588-1.215-3.184-2.035-4.79-2.457-1.605-.422-3.192-.457-4.761-.104-1.57.354-3.116 1.088-4.64 2.204-1.523 1.116-3.102 2.741-4.736 4.875l-6.64 8.672 18.795 14.391 8.036-10.495c1.178-1.539 2.026-3.044 2.544-4.517.518-1.473.745-2.952.682-4.438-.064-1.485-.456-2.926-1.176-4.324-.721-1.398-1.825-2.667-3.314-3.807zm544.986 16.366c2.844-2.198 5.303-4.523 7.377-6.975s3.559-5.002 4.455-7.649c.897-2.648 1.087-5.392.571-8.231-.516-2.84-1.931-5.756-4.243-8.748-2.293-2.967-4.778-5.045-7.455-6.235-2.677-1.189-5.434-1.704-8.273-1.545-2.839.16-5.709.917-8.612 2.272-2.902 1.355-5.726 3.092-8.471 5.213-2.917 2.255-5.435 4.606-7.553 7.053-2.118 2.446-3.636 4.992-4.554 7.636-.919 2.645-1.12 5.388-.603 8.227.516 2.84 1.949 5.78 4.299 8.822 2.332 3.016 4.853 5.116 7.564 6.299 2.711 1.183 5.5 1.674 8.366 1.473 2.866-.201 5.752-.989 8.657-2.366 2.906-1.376 5.731-3.125 8.475-5.246zM116.631 173.14c-1.266-.969-2.546-1.674-3.842-2.115a8.206 8.206 0 0 0-3.91-.367c-1.312.197-2.631.751-3.959 1.662-1.328.912-2.771 2.385-4.329 4.42l-5.756 7.518 17.269 13.223 6.326-8.263c1.387-1.811 2.266-3.46 2.637-4.947s.423-2.904.155-4.25a10.02 10.02 0 0 0-1.622-3.781 13.774 13.774 0 0 0-2.969-3.1zm65.735-8.737a5.8 5.8 0 0 1 .734.858c.178.264.306.523.385.776.078.254.091.486.037.696-.055.211-.17.404-.345.582l-18.498 18.692c-.396.399-.952.662-1.67.787-.717.125-1.476-.208-2.275-.999l-40.348-39.93a.978.978 0 0 1-.268-.462c-.045-.177-.024-.376.063-.597.087-.222.241-.488.46-.798a8.29 8.29 0 0 1 .89-1.032c.395-.4.742-.706 1.039-.917a4 4 0 0 1 .776-.452c.221-.089.42-.112.597-.069a.978.978 0 0 1 .465.263l38.749 38.347 16.321-16.493c.176-.177.369-.294.578-.351a1.35 1.35 0 0 1 .663-.003c.233.054.487.174.765.36.277.187.571.434.882.742zm490.71-20.969c-.285.289-.56.524-.823.703a2.05 2.05 0 0 1-.76.337 1.546 1.546 0 0 1-.679-.011 1.186 1.186 0 0 1-.55-.31l-16.741-16.47-16.108 16.374 15.872 15.615c.156.153.274.324.353.511.079.187.102.397.071.629-.031.232-.134.482-.309.748a6.09 6.09 0 0 1-.755.902 5.56 5.56 0 0 1-.823.702 2.05 2.05 0 0 1-.759.338 1.551 1.551 0 0 1-.68-.011 1.187 1.187 0 0 1-.549-.31l-15.873-15.615-18.738 19.047a.98.98 0 0 1-.461.269c-.177.046-.376.025-.597-.061a4.029 4.029 0 0 1-.783-.441 8.42 8.42 0 0 1-1.052-.903 8.521 8.521 0 0 1-.903-1.021 3.996 3.996 0 0 1-.47-.791c-.091-.22-.114-.419-.072-.596a.98.98 0 0 1 .262-.466l39.809-40.467c.789-.802 1.543-1.145 2.262-1.03.719.116 1.279.371 1.68.766l18.947 18.639c.156.153.263.334.32.544.057.209.058.441.005.696a2.29 2.29 0 0 1-.358.798 6.206 6.206 0 0 1-.738.885zm-470.067-32.336c3.014 3.791 5.308 7.567 6.881 11.327 1.572 3.76 2.351 7.413 2.335 10.959-.015 3.545-.877 6.955-2.585 10.23-1.708 3.275-4.323 6.312-7.846 9.113-3.522 2.801-6.991 4.651-10.408 5.551-3.416.9-6.76.963-10.03.19-3.27-.774-6.477-2.346-9.62-4.718-3.143-2.371-6.203-5.428-9.178-9.171-2.957-3.717-5.212-7.433-6.768-11.147-1.556-3.714-2.31-7.336-2.263-10.867.047-3.531.919-6.929 2.615-10.194 1.696-3.265 4.317-6.307 7.864-9.127 3.449-2.742 6.87-4.565 10.265-5.467 3.395-.903 6.734-.983 10.019-.241 3.285.741 6.492 2.264 9.62 4.567 3.129 2.303 6.162 5.301 9.099 8.995zm403.616 45.381a5.531 5.531 0 0 1-.731.798 2.31 2.31 0 0 1-.728.446 1.493 1.493 0 0 1-.69.09 1.2 1.2 0 0 1-.583-.242l-22.515-17.32c-.446-.343-.776-.862-.989-1.559-.213-.696.023-1.49.709-2.382l33.382-43.396c.686-.891 1.393-1.323 2.121-1.296.728.028 1.315.213 1.76.556l22.181 17.063c.174.133.301.3.383.501a1.3 1.3 0 0 1 .072.676 2.66 2.66 0 0 1-.278.822c-.15.298-.359.621-.626.967a5.531 5.531 0 0 1-.731.798c-.24.209-.472.357-.695.441a1.338 1.338 0 0 1-.657.086 1.194 1.194 0 0 1-.583-.241L617.698 98.11l-13.004 16.905 17.016 13.09c.199.153.339.329.421.53.082.201.11.42.085.658-.024.237-.112.505-.263.803-.15.298-.359.62-.626.967a5.113 5.113 0 0 1-.717.779c-.23.197-.452.332-.666.404a1.204 1.204 0 0 1-.629.049 1.444 1.444 0 0 1-.605-.289l-17.017-13.09-14.748 19.172 20.063 15.433c.174.134.302.301.383.502.082.201.117.425.105.672-.013.246-.094.519-.245.817-.15.298-.359.621-.626.967zM198.56 115.294c-2.237-2.813-4.595-5.239-7.076-7.279-2.48-2.041-5.05-3.49-7.71-4.35-2.66-.859-5.406-1.012-8.238-.456-2.832.555-5.728 2.009-8.688 4.363-2.935 2.333-4.979 4.847-6.132 7.54-1.152 2.693-1.629 5.458-1.43 8.294.199 2.836.996 5.696 2.39 8.579 1.395 2.884 3.172 5.683 5.331 8.398 2.295 2.887 4.68 5.372 7.155 7.456 2.476 2.084 5.042 3.566 7.699 4.448 2.658.881 5.402 1.045 8.235.489 2.832-.555 5.752-2.029 8.761-4.421 2.984-2.373 5.049-4.923 6.194-7.65 1.145-2.727 1.598-5.522 1.357-8.385-.24-2.863-1.068-5.738-2.485-8.624-1.416-2.886-3.204-5.687-5.363-8.402zm390.992-7.718c-2.507 4.434-5.275 8.029-8.305 10.786-3.03 2.756-6.279 4.662-9.747 5.717-3.468 1.055-7.131 1.264-10.989.627-3.858-.638-8.004-2.209-12.438-4.716l-10.406-5.882c-.489-.277-.889-.745-1.198-1.405-.309-.659-.187-1.478.366-2.458l26.943-47.662c.553-.979 1.193-1.506 1.917-1.581.725-.075 1.332.025 1.821.302l11.1 6.274c4.488 2.538 7.931 5.291 10.326 8.261 2.396 2.97 4 6.165 4.812 9.586.813 3.42.861 7.002.146 10.744-.715 3.741-2.164 7.544-4.348 11.407zm-322.264-30.86c2.223 4.583 3.607 8.905 4.152 12.965.544 4.059.265 7.816-.839 11.268-1.104 3.453-3.015 6.585-5.732 9.397-2.718 2.811-6.368 5.328-10.951 7.551l-10.755 5.215c-.507.246-1.119.308-1.837.188-.718-.121-1.323-.687-1.814-1.699l-23.891-49.263c-.491-1.012-.561-1.837-.211-2.476.35-.639.779-1.081 1.285-1.326l11.472-5.564c4.639-2.25 8.861-3.516 12.666-3.798 3.805-.283 7.346.214 10.622 1.491 3.276 1.276 6.25 3.272 8.921 5.988 2.672 2.716 4.976 6.07 6.912 10.063zm316.78 28.083c1.738-3.074 2.961-6.143 3.669-9.207.709-3.063.792-6.004.25-8.824-.542-2.819-1.747-5.466-3.615-7.94-1.869-2.474-4.721-4.795-8.556-6.963l-8.121-4.59-24.82 43.907 8.161 4.614c3.591 2.03 6.881 3.306 9.87 3.829 2.989.523 5.836.329 8.541-.583 2.706-.912 5.269-2.541 7.69-4.888 2.422-2.347 4.732-5.465 6.931-9.355zm-322.182-25.15c-1.541-3.178-3.37-5.929-5.487-8.253-2.118-2.325-4.49-4.066-7.118-5.223-2.627-1.157-5.49-1.67-8.587-1.54-3.097.13-6.628 1.157-10.593 3.08l-8.393 4.07 22.009 45.382 8.435-4.091c3.712-1.8 6.632-3.78 8.762-5.942 2.129-2.162 3.588-4.614 4.376-7.358.788-2.744.905-5.779.351-9.105-.553-3.326-1.805-7-3.755-11.02zm271.84 29.951a5.842 5.842 0 0 1-.512 1.006 2.966 2.966 0 0 1-.571.654 1.27 1.27 0 0 1-.628.3 1.29 1.29 0 0 1-.67-.096l-24.348-9.934c-.521-.212-.977-.626-1.367-1.241-.391-.615-.373-1.443.052-2.485l21.443-52.559a.995.995 0 0 1 .325-.425c.146-.109.338-.166.576-.17.238-.004.542.036.913.12.371.083.802.226 1.294.426.521.213.936.416 1.245.609.309.194.548.376.715.545.167.17.264.344.292.524a.982.982 0 0 1-.065.531l-20.593 50.476 21.484 8.765c.231.095.413.228.545.4.133.172.218.376.257.611.039.236.026.517-.04.844a6.286 6.286 0 0 1-.347 1.099zM317.335 90.491c.124.387.203.738.238 1.055.036.317.02.601-.048.852a1.475 1.475 0 0 1-.319.618 1.183 1.183 0 0 1-.531.342l-27.062 8.632c-.536.171-1.151.146-1.845-.076-.694-.221-1.212-.868-1.554-1.939l-16.638-52.161c-.342-1.072-.294-1.899.144-2.481.437-.583.924-.959 1.46-1.13l26.661-8.505c.208-.066.418-.076.63-.028.212.047.411.156.596.326.186.17.358.403.517.696.16.294.306.649.439 1.066.123.387.203.739.238 1.055.035.317.024.591-.033.823a1.348 1.348 0 0 1-.304.589 1.18 1.18 0 0 1-.531.341L275.68 48.13l6.481 20.32 20.454-6.524c.238-.076.463-.091.675-.044.212.048.408.149.589.305.181.155.351.38.51.673.159.294.305.649.438 1.066.124.387.201.731.231 1.033.031.302.015.561-.047.778a1.204 1.204 0 0 1-.318.544c-.15.147-.345.258-.583.334l-20.453 6.524 7.35 23.043 24.116-7.692c.208-.066.418-.076.63-.029.212.048.416.147.611.297.196.151.374.373.533.667.159.294.305.649.438 1.066zm177.342 6.13a.968.968 0 0 1-.285.452c-.135.122-.321.196-.558.222a3.98 3.98 0 0 1-.897-.029 8.34 8.34 0 0 1-1.35-.314 8.425 8.425 0 0 1-1.273-.487 3.994 3.994 0 0 1-.783-.484c-.182-.154-.295-.319-.339-.496a.98.98 0 0 1 .016-.534l17.167-56.218a.885.885 0 0 1 .308-.446c.15-.117.351-.186.603-.208.251-.021.558-.009.92.036.362.046.782.141 1.26.287.538.164.97.329 1.295.494.326.164.579.324.761.477.182.154.295.319.339.496a.98.98 0 0 1-.016.534l-17.168 56.218zm-29.386-10.346c-.078.557-.229 1.009-.451 1.357a2.69 2.69 0 0 1-.777.814 2.275 2.275 0 0 1-.95.364 3.355 3.355 0 0 1-.925.012l-1.16-.162a5.903 5.903 0 0 1-1.662-.47c-.489-.226-.946-.566-1.372-1.02-.425-.454-.832-1.04-1.221-1.757-.388-.717-.805-1.628-1.25-2.731L439.61 42.207a362.617 362.617 0 0 1-2.39-6.085 320.84 320.84 0 0 1-2.25-6.067l-.046-.006a530.294 530.294 0 0 1-.926 6.946l-.973 6.94-5.45 38.902a.991.991 0 0 1-.211.491c-.115.141-.287.244-.516.306-.23.063-.527.1-.892.112a8.339 8.339 0 0 1-1.382-.099 8.422 8.422 0 0 1-1.333-.282 4.023 4.023 0 0 1-.85-.355c-.203-.124-.341-.269-.412-.437a.985.985 0 0 1-.068-.53l7.877-56.216c.156-1.115.557-1.839 1.204-2.175.646-.335 1.248-.464 1.805-.386l2.321.325c.743.105 1.353.253 1.831.446s.897.465 1.259.816c.361.35.697.823 1.008 1.419.311.596.64 1.344.987 2.244l12.175 31.005c.77 1.938 1.495 3.799 2.176 5.583a914.702 914.702 0 0 1 1.986 5.248c.644 1.715 1.282 3.406 1.917 5.073a350.028 350.028 0 0 1 1.873 5.043l.046.006a677.51 677.51 0 0 1 1.092-8.13l1.138-8.124 4.898-34.955a.979.979 0 0 1 .211-.491c.114-.142.287-.252.519-.33.232-.078.529-.115.891-.111.363.003.822.044 1.38.122.495.069.925.153 1.29.252.364.098.648.217.849.355.202.139.346.293.432.463.087.17.117.348.091.533l-7.876 56.217zm-97.962-18.769c.396 2.658.271 5.109-.374 7.354a15.366 15.366 0 0 1-3.236 5.956c-1.512 1.726-3.401 3.152-5.666 4.279-2.264 1.128-4.803 1.901-7.616 2.32-1.916.285-3.751.377-5.504.275-1.753-.103-3.331-.302-4.733-.599-1.403-.296-2.598-.632-3.586-1.006s-1.678-.713-2.071-1.018a3.246 3.246 0 0 1-.929-1.142c-.225-.456-.391-1.039-.497-1.75a7.505 7.505 0 0 1-.101-1.312c.011-.349.055-.64.131-.873.076-.232.193-.4.351-.502.159-.103.331-.168.516-.195.433-.065 1.084.115 1.953.538.868.424 1.976.859 3.322 1.306 1.346.447 2.933.811 4.76 1.092s3.899.249 6.217-.097c1.886-.281 3.579-.793 5.079-1.538 1.5-.745 2.751-1.682 3.752-2.81a9.94 9.94 0 0 0 2.138-3.944c.424-1.501.502-3.148.235-4.94-.276-1.855-.915-3.387-1.916-4.596-1.002-1.21-2.235-2.219-3.698-3.028-1.463-.808-3.09-1.498-4.881-2.069a331.116 331.116 0 0 0-5.489-1.694 70.491 70.491 0 0 1-5.521-1.903 22.38 22.38 0 0 1-4.975-2.694 15.39 15.39 0 0 1-3.849-4.048c-1.061-1.611-1.769-3.607-2.124-5.987-.345-2.318-.237-4.459.323-6.422a13.37 13.37 0 0 1 2.826-5.208c1.324-1.508 2.994-2.76 5.01-3.755 2.016-.995 4.291-1.682 6.825-2.059a20.74 20.74 0 0 1 3.904-.203c1.335.054 2.611.188 3.827.402 1.217.213 2.317.492 3.3.835.983.343 1.643.64 1.981.89.337.25.555.439.653.566.098.128.194.295.288.502.094.207.178.456.253.745.075.289.144.649.209 1.082.059.402.09.769.092 1.1.002.332-.026.62-.084.866-.058.245-.148.44-.268.585a.722.722 0 0 1-.46.258c-.34.05-.891-.097-1.653-.441a36.418 36.418 0 0 0-2.844-1.117c-1.134-.4-2.46-.716-3.98-.947-1.519-.232-3.206-.21-5.061.066-1.823.272-3.378.756-4.665 1.453-1.286.698-2.314 1.538-3.084 2.521a8.29 8.29 0 0 0-1.571 3.291 9.926 9.926 0 0 0-.134 3.717c.276 1.854.915 3.386 1.917 4.596 1.002 1.209 2.243 2.225 3.724 3.047 1.481.822 3.125 1.517 4.931 2.085 1.807.568 3.644 1.132 5.513 1.691a81.618 81.618 0 0 1 5.54 1.876 22.036 22.036 0 0 1 5.017 2.665 15.247 15.247 0 0 1 3.869 4.021c1.059 1.595 1.764 3.568 2.114 5.917zm50.507 13.077c.196.465.289.846.279 1.144-.01.297-.115.525-.315.685-.2.16-.511.268-.932.322-.421.055-.959.089-1.615.101-.657.012-1.18-.002-1.572-.041-.391-.04-.697-.104-.918-.194a1.129 1.129 0 0 1-.499-.366 3.158 3.158 0 0 1-.315-.557l-6.113-16.06-26.62.496-5.278 16.179c-.058.22-.148.409-.27.567a1.508 1.508 0 0 1-.508.408c-.217.114-.52.205-.91.275-.389.07-.88.11-1.474.121a11.696 11.696 0 0 1-1.642-.063c-.439-.054-.761-.157-.967-.31a.84.84 0 0 1-.34-.65c-.021-.281.058-.657.236-1.13l20.156-58.088c.089-.252.226-.465.41-.641a1.92 1.92 0 0 1 .719-.412 5.765 5.765 0 0 1 1.074-.231c.421-.054.897-.087 1.428-.097a13.68 13.68 0 0 1 1.478.043c.423.039.783.103 1.082.191.298.088.535.217.71.385.175.169.312.377.41.626l22.306 57.297zm-26.147-52.116l-.047.001-10.828 32.833 23.199-.433-12.324-32.401z"/><path serif:id="19 New Mexico 62" d="M415.577 780.607a.99.99 0 0 1-.16.51c-.1.152-.269.271-.507.355a4.535 4.535 0 0 1-.899.199 8.258 8.258 0 0 1-1.385.04c-.5-.02-.936-.069-1.308-.146a3.996 3.996 0 0 1-.881-.269c-.215-.102-.366-.233-.454-.393a.992.992 0 0 1-.12-.521l2.15-54.661-.094-.003-26.003 54.051a1.189 1.189 0 0 1-.295.34 1.608 1.608 0 0 1-.527.261 4.41 4.41 0 0 1-.78.157c-.298.035-.65.044-1.056.028a7.72 7.72 0 0 1-1.122-.114 3.737 3.737 0 0 1-.765-.218c-.2-.086-.36-.186-.481-.3a.695.695 0 0 1-.22-.361l-20.507-55.88-.047-.002-2.15 54.661a.992.992 0 0 1-.161.51c-.1.152-.269.271-.507.355a4.518 4.518 0 0 1-.899.199c-.361.049-.839.061-1.432.038a7.927 7.927 0 0 1-1.331-.147 3.978 3.978 0 0 1-.858-.268c-.214-.102-.358-.233-.43-.392a1.14 1.14 0 0 1-.097-.52l2.231-56.722c.045-1.124.372-1.885.982-2.283.609-.398 1.195-.586 1.757-.564l3.092.121c.78.031 1.464.144 2.051.339a5.037 5.037 0 0 1 1.539.811c.44.346.807.759 1.101 1.24.294.48.554 1.022.78 1.625l18.107 48.937.234.009 22.729-47.143c.342-.737.703-1.356 1.082-1.857.379-.501.77-.9 1.173-1.197a3.506 3.506 0 0 1 1.291-.606c.457-.107.951-.15 1.482-.129l3.42.134a3.1 3.1 0 0 1 .884.176c.309.106.583.281.824.525.24.244.439.556.596.938.157.381.225.853.202 1.415l-2.231 56.722zm48.15-7.74c.052.403.067.763.045 1.081a2.3 2.3 0 0 1-.2.829 1.481 1.481 0 0 1-.426.551 1.179 1.179 0 0 1-.583.241l-28.172 3.638c-.558.072-1.158-.063-1.801-.405-.643-.343-1.037-1.072-1.181-2.187l-7.012-54.299c-.144-1.116.051-1.921.586-2.416.535-.494 1.081-.777 1.639-.849l27.754-3.585c.217-.028.426.001.626.085.2.085.375.227.527.428.152.201.28.46.384.778.104.317.185.693.241 1.127.052.403.067.763.045 1.081a2.35 2.35 0 0 1-.18.803 1.339 1.339 0 0 1-.405.525 1.183 1.183 0 0 1-.583.241l-24.686 3.188 2.732 21.152 21.291-2.749c.248-.032.472-.006.672.078.2.085.375.22.525.405.15.185.277.437.381.754.104.318.184.693.24 1.127.052.403.066.756.042 1.058a2.096 2.096 0 0 1-.185.757c-.1.202-.237.361-.411.478a1.45 1.45 0 0 1-.633.224l-21.292 2.749 3.098 23.989 25.104-3.242c.217-.028.425 0 .625.085.2.084.383.218.548.401.166.184.301.434.405.752.104.317.184.693.24 1.127zm47.66-10.644c.38.355.619.666.718.931a.713.713 0 0 1-.107.728c-.17.22-.468.415-.892.586-.424.171-.985.345-1.682.52-.697.175-1.248.289-1.654.343-.405.054-.74.065-1.006.036a1.46 1.46 0 0 1-.659-.221 3.268 3.268 0 0 1-.524-.449l-20.355-20.982-8.285 28.183a4.52 4.52 0 0 1-.317.66c-.114.189-.28.36-.5.512-.219.152-.521.3-.903.444-.383.145-.892.297-1.529.457-.697.176-1.265.286-1.704.332-.44.046-.772.009-.995-.112-.224-.121-.355-.322-.393-.602-.039-.281.025-.667.191-1.16l10.099-32.119-23.36-23.127c-.38-.356-.626-.665-.74-.926-.114-.261-.101-.498.039-.711.139-.212.406-.4.8-.563.394-.164.94-.333 1.637-.509a15.69 15.69 0 0 1 1.631-.337c.42-.057.771-.073 1.051-.047.281.026.508.098.683.215.174.117.364.263.569.437l19.831 19.858 8.036-26.864c.068-.243.143-.455.226-.637.084-.182.22-.345.409-.489.189-.145.46-.285.812-.422.353-.137.847-.286 1.483-.446.637-.16 1.182-.265 1.637-.314.455-.05.809-.019 1.063.095a.762.762 0 0 1 .461.585c.054.276.013.657-.123 1.142l-9.702 31.198 24.054 23.775zm-246.384-66.001l-.027.002a1.197 1.197 0 0 1-.617-.133l-22.141-11.37-9.743 18.972 19.097 9.808c.223.114.392.263.509.446.117.183.185.393.203.631.018.237-.02.517-.114.837a6.17 6.17 0 0 1-.441 1.064 5.22 5.22 0 0 1-.565.896 2.099 2.099 0 0 1-.582.518 1.22 1.22 0 0 1-.61.161 1.447 1.447 0 0 1-.648-.175l-19.098-9.807-11.049 21.516 22.517 11.563c.194.1.35.242.467.425.117.183.191.396.224.641.032.245.001.528-.093.848a6.235 6.235 0 0 1-.442 1.065 5.519 5.519 0 0 1-.575.916c-.199.25-.411.439-.636.57-.225.13-.445.201-.662.213a1.193 1.193 0 0 1-.617-.133l-25.269-12.976c-.501-.257-.919-.709-1.254-1.355-.335-.647-.246-1.471.268-2.471l25.011-48.704c.514-1 1.131-1.553 1.852-1.657.721-.104 1.331-.027 1.832.229l24.893 12.784c.195.1.351.242.468.425.116.183.18.4.192.652.011.251-.031.537-.125.858l-.015.05c.301.079.642.179 1.025.301.655.209 1.169.397 1.542.565.372.168.649.329.829.485.18.156.283.32.31.493.028.172.038.372.031.6l-1.622 55.317.044.014 29.494-46.444c.126-.19.258-.345.394-.465.137-.121.331-.19.583-.208.252-.019.586.014 1.002.097.416.083.952.229 1.607.438.506.161.909.314 1.207.458.298.144.53.292.695.443.165.151.276.317.333.499.057.182.082.387.075.614l-1.577 55.332.089.029 30.298-46.189c.126-.19.25-.347.372-.472s.301-.199.538-.222c.237-.023.541 0 .912.069.372.069.87.203 1.496.402.655.208 1.166.404 1.535.587.368.183.625.379.771.59.146.21.184.452.114.725-.071.272-.237.613-.498 1.022l-33.896 49.766c-.165.21-.371.366-.617.468a2.122 2.122 0 0 1-.88.138 6.902 6.902 0 0 1-1.136-.141c-.416-.083-.892-.21-1.428-.381a13.947 13.947 0 0 1-1.408-.522 6.807 6.807 0 0 1-1.03-.549 2.124 2.124 0 0 1-.639-.621 1.513 1.513 0 0 1-.232-.738l1.447-51.832-.089-.028-27.622 43.499a1.333 1.333 0 0 1-.527.496c-.216.112-.479.167-.791.166a5.61 5.61 0 0 1-1.091-.126 14.049 14.049 0 0 1-1.473-.395 15.89 15.89 0 0 1-1.52-.557 7.49 7.49 0 0 1-1.075-.564c-.299-.193-.519-.403-.661-.628a1.523 1.523 0 0 1-.232-.738l1.091-59.102zm261.944 61.209a.991.991 0 0 1 .038.533c-.037.179-.143.348-.318.509a3.979 3.979 0 0 1-.74.509 8.317 8.317 0 0 1-1.274.547 8.396 8.396 0 0 1-1.313.362 3.97 3.97 0 0 1-.918.075c-.238-.016-.427-.082-.567-.199a.99.99 0 0 1-.304-.44l-19.492-55.455a.884.884 0 0 1-.016-.541c.051-.183.172-.358.362-.524.19-.167.444-.339.762-.517.319-.178.714-.35 1.186-.516.53-.186.975-.31 1.335-.37s.659-.082.896-.066.426.082.567.198c.14.116.241.263.303.44l19.493 55.455zm48.148-28.828c.145.311.263.601.354.869.09.268.154.515.189.739.036.225.044.445.024.662-.02.216-.101.521-.245.916-.144.394-.527 1.107-1.149 2.139-.622 1.031-1.482 2.165-2.578 3.4-1.096 1.235-2.437 2.481-4.024 3.738-1.586 1.257-3.455 2.387-5.608 3.391-3.455 1.611-6.865 2.469-10.23 2.572a21.145 21.145 0 0 1-9.625-1.951c-3.051-1.404-5.901-3.558-8.547-6.462-2.647-2.903-4.988-6.536-7.022-10.897-2.086-4.475-3.392-8.754-3.916-12.837-.525-4.082-.338-7.842.559-11.277.898-3.436 2.477-6.482 4.738-9.14 2.261-2.657 5.133-4.798 8.616-6.423a26.584 26.584 0 0 1 4.998-1.761 31.67 31.67 0 0 1 4.824-.801c1.527-.126 2.953-.119 4.277.022 1.325.141 2.267.314 2.828.518.56.204.93.368 1.108.491.179.124.346.279.501.465.156.186.311.407.465.663.153.256.31.553.468.893.185.397.325.754.422 1.071.096.317.144.605.144.864 0 .258-.045.477-.134.657a.867.867 0 0 1-.43.407c-.397.185-1.091.156-2.084-.088-.993-.244-2.242-.446-3.748-.606-1.506-.16-3.243-.134-5.213.078-1.97.212-4.131.866-6.482 1.962-2.577 1.202-4.701 2.821-6.371 4.859-1.671 2.037-2.809 4.421-3.415 7.152-.606 2.73-.654 5.77-.144 9.118.51 3.349 1.656 6.934 3.439 10.758 1.703 3.654 3.612 6.712 5.726 9.174 2.114 2.462 4.373 4.314 6.779 5.554a16.29 16.29 0 0 0 7.635 1.844c2.685-.01 5.429-.669 8.233-1.977 2.294-1.07 4.163-2.294 5.605-3.674 1.443-1.379 2.608-2.707 3.496-3.983.888-1.276 1.586-2.386 2.094-3.33.508-.944.974-1.514 1.399-1.713a.871.871 0 0 1 .475-.091c.146.018.297.102.454.253.157.151.329.373.517.664.187.292.387.665.598 1.118zm35.561-49.626c2.645 4.058 4.573 8.032 5.785 11.924 1.212 3.891 1.644 7.601 1.295 11.13-.349 3.528-1.527 6.842-3.536 9.941-2.008 3.1-4.898 5.878-8.668 8.335-3.77 2.457-7.398 3.973-10.884 4.548-3.486.575-6.82.323-10.003-.754-3.183-1.078-6.227-2.945-9.134-5.601-2.906-2.657-5.665-5.988-8.275-9.994-2.594-3.979-4.49-7.891-5.69-11.734-1.199-3.844-1.61-7.521-1.231-11.032.379-3.51 1.566-6.811 3.562-9.902 1.995-3.091 4.891-5.874 8.687-8.348 3.692-2.406 7.269-3.898 10.734-4.478 3.464-.579 6.797-.345 9.997.702 3.201 1.048 6.25 2.865 9.149 5.452 2.898 2.587 5.635 5.858 8.212 9.811zm-411.434 42.157c-.325.459-.667.791-1.024.997a2.693 2.693 0 0 1-1.064.366 2.278 2.278 0 0 1-1.011-.115 3.31 3.31 0 0 1-.827-.414l-.956-.678a5.9 5.9 0 0 1-1.259-1.182 4.453 4.453 0 0 1-.748-1.537c-.169-.599-.261-1.306-.276-2.122-.015-.815.034-1.816.147-3l4.497-43.257a351.403 351.403 0 0 1 1.472-12.924l-.038-.028a521.419 521.419 0 0 1-4.018 5.742l-4.057 5.714-22.741 32.029a.987.987 0 0 1-.413.34c-.167.073-.366.084-.599.034a3.975 3.975 0 0 1-.843-.311 8.32 8.32 0 0 1-1.182-.724 8.508 8.508 0 0 1-1.054-.863 4.051 4.051 0 0 1-.59-.707c-.124-.203-.18-.396-.166-.577a.998.998 0 0 1 .184-.502l32.862-46.286c.652-.918 1.342-1.377 2.07-1.377.728 0 1.322.163 1.78.488l1.912 1.357c.611.434 1.085.847 1.42 1.238.335.392.583.826.742 1.303.159.478.24 1.052.242 1.724.002.672-.05 1.488-.157 2.447l-3.458 33.13c-.208 2.075-.42 4.061-.637 5.958a940.865 940.865 0 0 1-.651 5.573c-.218 1.819-.429 3.614-.633 5.386a334.814 334.814 0 0 1-.658 5.339l.038.027a706.756 706.756 0 0 1 4.711-6.715l4.749-6.689 20.434-28.781a.977.977 0 0 1 .413-.339c.167-.073.371-.091.613-.054.241.038.522.142.842.311.321.17.71.418 1.169.744.407.289.75.561 1.029.817.279.255.476.491.591.706.115.216.172.419.17.61a.882.882 0 0 1-.164.516l-32.863 46.286zm406.61-38.398c-1.962-3.011-4.082-5.648-6.36-7.913-2.277-2.264-4.7-3.949-7.267-5.055-2.567-1.106-5.287-1.515-8.159-1.229-2.872.287-5.891 1.462-9.059 3.527-3.142 2.047-5.413 4.358-6.814 6.93-1.4 2.573-2.135 5.281-2.203 8.123-.069 2.842.455 5.764 1.573 8.766 1.117 3.002 2.622 5.956 4.516 8.862 2.014 3.089 4.155 5.788 6.423 8.095 2.269 2.308 4.685 4.025 7.247 5.153 2.563 1.127 5.28 1.548 8.152 1.261 2.872-.286 5.918-1.479 9.138-3.577 3.194-2.082 5.49-4.427 6.886-7.034 1.397-2.608 2.11-5.348 2.14-8.221.03-2.873-.525-5.813-1.663-8.819-1.139-3.007-2.656-5.963-4.55-8.869zm78.774-61.617a24.251 24.251 0 0 1 4.773 5.593 17.986 17.986 0 0 1 2.561 6.904c.373 2.465.179 5.05-.583 7.755-.761 2.705-2.314 5.42-4.658 8.143-1.55 1.8-3.156 3.2-4.821 4.2-1.665 1-3.383 1.655-5.155 1.965-1.771.31-3.596.275-5.475-.105-1.879-.38-3.829-1.049-5.851-2.005-2.021-.957-4.096-2.175-6.223-3.656-2.127-1.48-4.328-3.199-6.602-5.156a70.354 70.354 0 0 1-5.822-5.63 43.455 43.455 0 0 1-4.823-6.254 32.613 32.613 0 0 1-3.263-6.735 20.688 20.688 0 0 1-1.162-7.093c.03-2.406.523-4.847 1.479-7.323.956-2.476 2.504-4.957 4.644-7.444a28.763 28.763 0 0 1 2.423-2.492 33.79 33.79 0 0 1 2.503-2.082c.808-.603 1.538-1.068 2.189-1.394.652-.325 1.114-.515 1.387-.569.273-.053.505-.06.697-.019.191.041.378.099.561.174.183.075.373.177.571.307.198.129.416.295.653.499.26.224.492.434.695.63.203.195.35.383.441.565a.998.998 0 0 1 .108.557c-.019.19-.11.379-.273.569-.224.26-.608.538-1.151.834-.543.295-1.201.677-1.975 1.145-.773.468-1.641 1.092-2.602 1.873-.96.781-1.981 1.799-3.061 3.055-2.059 2.392-3.331 4.875-3.814 7.448-.483 2.573-.363 5.14.361 7.701.723 2.56 1.952 5.061 3.686 7.502 1.734 2.44 3.778 4.736 6.133 6.886.192-.989.45-2.056.774-3.199a27.345 27.345 0 0 1 1.296-3.554 33.914 33.914 0 0 1 1.932-3.717 26.452 26.452 0 0 1 2.682-3.691c2.222-2.582 4.421-4.442 6.596-5.58 2.175-1.137 4.309-1.713 6.402-1.725 2.093-.013 4.127.45 6.103 1.387 1.976.938 3.864 2.182 5.664 3.731zm-3.488 4.915c-1.492-1.285-2.986-2.303-4.483-3.055-1.496-.752-2.999-1.138-4.507-1.158-1.509-.02-3.03.371-4.566 1.173-1.535.801-3.078 2.102-4.627 3.903a22.632 22.632 0 0 0-2.317 3.231 27.511 27.511 0 0 0-2.989 7.137 21.398 21.398 0 0 0-.61 3.403c3.316 2.854 6.294 5.035 8.933 6.544 2.639 1.509 5.018 2.433 7.138 2.773 2.119.34 4.026.136 5.721-.611 1.694-.748 3.265-1.962 4.713-3.644 1.508-1.752 2.475-3.559 2.901-5.419.426-1.86.457-3.668.093-5.425a14.455 14.455 0 0 0-2.014-4.918c-.978-1.522-2.107-2.833-3.386-3.934zm-538.664 9.251a64.001 64.001 0 0 1-6.59 4.714 44.154 44.154 0 0 1-7.077 3.598 31.956 31.956 0 0 1-7.295 1.961 21.581 21.581 0 0 1-7.293-.188c-2.406-.477-4.764-1.426-7.075-2.848-2.31-1.422-4.513-3.416-6.607-5.982a28.476 28.476 0 0 1-2.276-3.195 34.3 34.3 0 0 1-1.617-2.946c-.431-.899-.746-1.68-.946-2.344-.199-.665-.291-1.185-.275-1.561.016-.376.137-.746.362-1.112.226-.366.593-.757 1.102-1.172.363-.296.663-.521.901-.675.238-.153.453-.248.645-.284a.762.762 0 0 1 .495.05c.137.069.275.189.413.358.198.242.392.678.584 1.309.192.63.475 1.397.85 2.301.375.904.871 1.932 1.487 3.082.617 1.151 1.439 2.356 2.466 3.614 2.075 2.542 4.361 4.317 6.858 5.325 2.496 1.008 5.065 1.412 7.706 1.213 2.641-.2 5.317-.912 8.028-2.137 2.712-1.225 5.332-2.808 7.86-4.751-1.901-.748-3.941-1.826-6.119-3.235-2.178-1.408-4.285-3.359-6.321-5.853-2.193-2.687-3.652-5.228-4.376-7.622-.724-2.394-.902-4.639-.535-6.734.368-2.095 1.198-4.043 2.491-5.844 1.292-1.802 2.871-3.463 4.735-4.985a24.873 24.873 0 0 1 6.328-3.774 17.388 17.388 0 0 1 7.063-1.318c2.426.057 4.871.704 7.333 1.941 2.462 1.238 4.83 3.249 7.102 6.033 1.502 1.84 2.593 3.682 3.272 5.528.679 1.845 1.004 3.688.973 5.529-.031 1.84-.389 3.686-1.076 5.537-.687 1.852-1.674 3.696-2.959 5.531-1.285 1.836-2.825 3.668-4.62 5.496a73.562 73.562 0 0 1-5.997 5.44zm-3.431-4.944c3.365-2.747 6.023-5.31 7.974-7.689 1.95-2.379 3.282-4.615 3.993-6.709.712-2.093.851-4.072.418-5.937-.434-1.865-1.352-3.657-2.755-5.376-1.482-1.816-3.075-3.088-4.778-3.815-1.703-.728-3.424-1.057-5.163-.989-1.74.069-3.428.458-5.066 1.17a18.798 18.798 0 0 0-4.418 2.668c-1.525 1.245-2.797 2.566-3.815 3.962-1.019 1.396-1.672 2.857-1.959 4.382-.288 1.526-.178 3.131.329 4.814.507 1.684 1.511 3.446 3.013 5.286a25.567 25.567 0 0 0 5.784 5.232c2.176 1.431 4.324 2.431 6.443 3.001zm583.081-34.623c.311.209.581.437.809.685.229.248.402.496.518.743.116.248.164.497.146.749a1.484 1.484 0 0 1-.263.727l-18.28 27.192a2.243 2.243 0 0 1-.562.582 1.69 1.69 0 0 1-.735.297c-.273.042-.579.006-.916-.108a4.678 4.678 0 0 1-1.09-.563 10.92 10.92 0 0 1-.869-.641c-.242-.2-.44-.409-.595-.626a4.156 4.156 0 0 1-.414-.73 6.077 6.077 0 0 1-.321-.95l-3.962-17.631c-.971-4.381-2.01-8.045-3.117-10.992-1.106-2.947-2.245-5.397-3.416-7.352-1.172-1.955-2.375-3.526-3.609-4.714-1.235-1.188-2.475-2.2-3.72-3.037a12.688 12.688 0 0 0-3.965-1.79 10.264 10.264 0 0 0-4.146-.217c-1.366.211-2.69.724-3.971 1.538-1.282.814-2.428 1.973-3.44 3.477-1.098 1.634-1.856 3.252-2.274 4.854-.418 1.602-.675 3.076-.771 4.423-.096 1.348-.136 2.498-.118 3.452.018.953-.077 1.586-.286 1.897a.988.988 0 0 1-.405.349 1.109 1.109 0 0 1-.592.082 2.351 2.351 0 0 1-.772-.237 7.2 7.2 0 0 1-.934-.543 7.666 7.666 0 0 1-.752-.562 3.95 3.95 0 0 1-.486-.496 2.788 2.788 0 0 1-.342-.54c-.095-.196-.171-.53-.23-1.002-.059-.473-.069-1.214-.031-2.224.039-1.009.197-2.211.476-3.606.278-1.394.7-2.861 1.265-4.402a20.774 20.774 0 0 1 2.286-4.45c1.586-2.36 3.318-4.18 5.195-5.46 1.877-1.28 3.805-2.102 5.782-2.467a13.814 13.814 0 0 1 5.896.178 17.38 17.38 0 0 1 5.535 2.479 34.314 34.314 0 0 1 4.529 3.638c1.412 1.345 2.758 3.097 4.036 5.255 1.279 2.159 2.489 4.855 3.629 8.088 1.14 3.233 2.251 7.265 3.333 12.097l3.437 15.641 15.482-23.03a1.513 1.513 0 0 1 1.251-.684c.269-.008.554.043.857.153.303.109.61.268.922.478zm-631.643 22.68c-.368.236-.703.395-1.003.476a2.132 2.132 0 0 1-.814.076 1.374 1.374 0 0 1-.614-.219 1.453 1.453 0 0 1-.402-.411l-16.587-25.893a1.285 1.285 0 0 1-.192-.517 1.413 1.413 0 0 1 .07-.629c.074-.233.21-.469.41-.708.199-.239.483-.476.851-.712.316-.203.627-.355.932-.458.305-.103.581-.15.828-.141.247.009.467.063.66.162s.349.24.467.424l7.257 11.328 41.918-26.852-13.52-6.592c-.533-.253-.903-.498-1.111-.736-.208-.238-.297-.478-.267-.72.031-.242.18-.486.449-.733a7.634 7.634 0 0 1 1.035-.774c.342-.219.647-.396.914-.53.266-.133.517-.22.752-.259.235-.039.456-.041.663-.007.208.034.436.101.686.201l15.653 7.229c.104.045.224.117.361.215.136.098.284.226.441.385.158.159.31.339.458.542.148.202.315.447.5.737.287.447.505.846.655 1.195.149.35.244.642.283.876.039.235.018.434-.063.597a.984.984 0 0 1-.358.397l-46.339 29.684 6.22 9.71c.118.184.186.391.203.622.018.23-.021.459-.116.687a2.368 2.368 0 0 1-.475.693 4.244 4.244 0 0 1-.805.655z"/></g><path serif:id="body" d="M136.648 517.843c44.636 101.155 161.704 147.467 261.479 103.441 99.774-44.027 145.473-163.72 100.837-264.876L136.648 517.843z" fill="#9e001c"/><clipPath id="a"><path d="M136.648 517.843c44.636 101.155 161.704 147.467 261.479 103.441 99.774-44.027 145.473-163.72 100.837-264.876L136.648 517.843z"/></clipPath><g clip-path="url(#a)"><path d="M236.569 473.322c30.649 60.912 58.594 100.274 174.358 141.747 26.748-37.926 63.044-72.758-10.183-214.897-44.377 19.862-164.175 73.15-164.175 73.15z" fill="#fff"/><path d="M401.085 398.711c1.292.453 1.867 2.474 2.692 4.092 17.664 34.756 34.007 71.123 39.833 109.211 3.363 21.988 2.161 45.165-7.076 65.653-6.058 13.437-15.116 25.243-23.756 37.382-1.274 1.797-1.568 1.622-2.359 1.432-56.274-20.214-112.59-45.911-148.264-96.077-9.893-13.912-18.107-29.005-25.848-44.272l-.359-.71-.838-1.75c-.089-.743.178-1.324.849-1.721 51.721-23.008 103.387-45.991 155.016-69.054l4.781-2.137 4.684-2.057s.295-.035.645.008zm-4.104 4.787c-51.498 23.02-103.036 45.938-154.568 68.866l-3.796 1.688c14.332 28.422 31.075 55.948 55.397 77.367 32.933 29.002 74.682 46.799 116.068 61.753l.279.1c14.032-19.715 28.155-39.392 31.271-64.939 3.92-32.138-5.974-64.47-18.086-95.045-6.855-17.305-14.793-34.167-23.284-50.772l-.203-.395-3.078 1.377z"/><path d="M325.017 432.522c.464.11.838.366 1.109.772l66.977 124.086c.499 1.165.315 1.493-.689 2.073l-34.239 15.857c-1.119.398-1.316.248-1.925-.605l-23.916-40.969-13.269 7.095s-1.34.348-2-.561l-22.012-37.369-17.027 8.557s-1.206.528-1.988-.616l-24.317-44.133c-.514-1.178-.322-1.519.704-2.094l71.77-31.979c.305-.103.106-.149.822-.114zm-69.88 34.169l22.832 41.438 16.99-8.539c1.128-.44 1.34-.286 1.966.579l21.995 37.338 13.274-7.098s1.337-.358 2.003.567l23.956 41.039 31.553-14.614-65.56-121.458-69.009 30.748z"/><path d="M257.632 464.102l62.07-27.94L382.817 554c.492 1.156.313 1.477-.677 2.062l-21.606 10.283c-1.078.408-1.328.273-1.939-.595l-23.851-40.638-14.029 7.611s-1.242.571-2.026-.589l-20.691-37.22-16.316 8.332s-1.207.534-1.984-.591l-22.066-38.553zM399.095 556.534c-1.009.494-1.642.029-2.027-.627l-66.499-126.065 2.747-1.223 6.777 12.847 12.437-6.56c1.86-.911 2.978 1.758 1.399 2.653l-12.437 6.561 5.148 9.759 12.437-6.561c1.955-.957 2.999 1.748 1.4 2.654l-12.437 6.56 5.148 9.76 12.437-6.561c1.954-.956 3.135 1.67 1.4 2.653l-12.437 6.561 5.148 9.759 12.437-6.56c2.122-1.039 3.206 1.629 1.399 2.653l-12.437 6.561 5.148 9.759 12.437-6.56c2.048-1.002 3.159 1.656 1.4 2.653l-12.437 6.56 5.148 9.76 12.437-6.561c1.965-.962 3.172 1.65 1.4 2.654l-12.437 6.56 5.148 9.76 12.437-6.561c2.227-1.09 3.338 1.555 1.399 2.654l-12.437 6.56 5.148 9.759 12.438-6.56c2.095-1.026 3.094 1.693 1.399 2.653l-12.437 6.561 5.148 9.759 12.437-6.56c2.131-1.044 3.247 1.606 1.4 2.653l-12.437 6.561 5.148 9.759 12.437-6.561c1.951-.955 3.29 1.583 1.4 2.654l-13.764 7.26z"/><path d="M468 399.405l34 41-34 47-34-44 34-44z" fill="#fff"/><clipPath id="b"><path d="M468 399.405l34 41-34 47-34-44 34-44z"/></clipPath><g clip-path="url(#b)"><path d="M468.242 411.924c.322.073.508.091.913.523l23.181 27.955c.581.793.468 1.197.061 1.836l-23.182 32.046a1.562 1.562 0 0 1-2.402.038l-23.182-30c-.552-.811-.426-1.209 0-1.834l23.182-30c.536-.614.569-.652 1.429-.564z"/></g><path d="M468.198 397.918c.37.077.691.254.957.529l34 41c.591.83.559 1.03.06 1.837l-34 47a1.568 1.568 0 0 1-2.402.038l-34-44c-.561-.848-.522-1.045 0-1.834l34-44c.631-.702.764-.606 1.385-.57zm-32.302 45.487L467.96 484.9l32.143-44.433-32.062-38.663-32.145 41.601z"/><g><path d="M469.386 507.405l14.296 17.238-14.296 19.762-14.295-18.5 14.295-18.5z" fill="#fff"/><clipPath id="c"><path d="M469.386 507.405l14.296 17.238-14.296 19.762-14.295-18.5 14.295-18.5z"/></clipPath><g clip-path="url(#c)"><path d="M469.472 513.561c.416.04.682.107 1.069.54l8.381 10.107a1.56 1.56 0 0 1 .061 1.836l-8.381 11.586c-.211.27-.271.296-.402.381-.636.41-1.403.374-2.001-.343l-8.38-10.846a1.558 1.558 0 0 1 0-1.834l8.38-10.846c.458-.549.741-.591 1.273-.581z"/></g><path d="M469.572 505.916c.598.104.617.145.969.531l14.295 17.239c.408.541.435 1.266.061 1.837l-14.295 19.761a1.564 1.564 0 0 1-2.403.038l-14.295-18.5a1.585 1.585 0 0 1 0-1.834l14.295-18.5c.324-.38.577-.633 1.373-.572zm-12.037 19.279a1.162 1.162 0 0 0 0 1.42l11.238 14.542a.7.7 0 0 0 1.124-.018l11.349-15.688a1.186 1.186 0 0 0-.048-1.453l-11.29-13.615a.602.602 0 0 0-.94.016l-11.433 14.796z"/></g><g><circle cx="279" cy="595.405" r="15.493"/><circle cx="279" cy="595.405" r="12.489" fill="#fff"/></g><g><path d="M201.438 598.913l85-52.444-6.562-6.674-86.6 52.767 8.162 6.351z" fill="#fff"/><path d="M292.746 550.613c1.22.281 1.694 1.929.564 2.754l-83.427 52.188c-1.401.743-3.238-1.342-1.591-2.543l83.427-52.188c.533-.283.591-.247 1.027-.211zm-12.576-12.288c.511.142.538.211.775.419l6.563 6.673c.608.718.735 1.591-.282 2.329l-85.001 52.443c-.861.445-.982.389-1.708-.092l-8.162-6.351a1.569 1.569 0 0 1 .14-2.465l86.6-52.766c.311-.159.306-.286 1.075-.19zm-84.258 54.388l5.625 4.376 82.513-50.909-4.41-4.485-83.728 51.018z"/></g><path d="M236.415 473.39c16.891 33.989 31.194 54.43 43.461 66.405l-86.6 52.767c-23.703-19.442-43.364-44.659-56.628-74.719l99.767-44.453z"/><g><path d="M140.567 516.096s37.224 71.378 60.832 52.315c18.432-16.539-13.7-66.584-16.255-72.176-9.499 4.255-44.577 19.861-44.577 19.861zm51.064-22.752s32.114 67.366 55.217 50.322c17.549-15.528-9.301-56.75-13.803-68.774-10.815 5.019-41.414 18.452-41.414 18.452z" fill="#fff"/><path d="M185.359 494.75c1.304.285 1.181.954 1.54 1.637 9.406 17.622 21.008 34.803 21.659 55.831.184 5.966-1.09 12.345-5.581 16.768-4.306 4.241-11.607 5.058-17.621 2.66-9.378-3.74-16.616-11.72-23.232-19.855-8.381-10.306-15.567-21.577-21.933-33.227-.175-.32-.349-.64-.521-.961-.532-.99-1.021-2.184.288-2.877 14.162-6.302 28.328-12.604 42.508-18.936l2.065-.924c.143-.052.295-.155.828-.116zm-1.669 3.778c-12.268 5.48-24.58 10.957-36.883 16.434l-4.155 1.849c10.146 18.646 21.049 38.086 38.971 49.518.552.352 1.112.689 1.683 1.008.448.252.903.492 1.365.72 4.842 2.39 11.141 2.901 15.756-.789 5.776-5.229 5.649-14.349 4.468-21.194-2.917-16.899-11.9-32.45-20.115-47.303-.574-1.045-.754-.393-1.09-.243zm49.526-25.126c1.355.25 1.235 1.021 1.695 2.116 6.955 16.265 17.623 31.357 19.188 50.045.574 6.858-.5 14.574-6.366 19.315-2.954 2.157-6.598 3.32-10.313 2.991-9.634-.854-16.848-8.563-22.672-15.326-9.904-11.503-17.78-24.787-24.374-38.353 0 0-.627-1.551.654-2.219 13.804-6.065 27.669-12.088 41.386-18.44 0 0 .241-.155.802-.129zm-1.192 3.612c-12.253 5.611-24.582 11.011-36.893 16.43l-1.463.644c8.764 17.567 18.487 35.964 34.48 46.899.505.345 1.018.677 1.542.993.412.249.829.488 1.254.715 4.511 2.413 10.23 3.184 14.891-.146 0 0 2.483-2.327 3.692-4.975 3.647-7.988 1.22-17.179-1.285-24.953-3.984-12.366-10.782-23.761-15.948-35.595 0 0 .169-.213-.27-.012z"/></g></g><path serif:id="body outline" d="M302.842 638.431c-58.162-5.365-114.242-36.422-148.541-85.975a205.447 205.447 0 0 1-18.495-32.816c-.501-1.116-1.228-2.136.231-3.167l362.317-161.435s.511-.14 1.151-.029l.833.796c24.411 55.57 22.248 121.994-5.641 176.048a194.766 194.766 0 0 1-15.881 25.651 5.22 5.22 0 0 1-.396 1.018c-12.059 24.119-22.007 49.609-26.539 75.92-1.055 6.126-1.75 12.327-1.825 18.552l46.663-23.209 3.936-15.727a1.55 1.55 0 0 1 1.521-1.134c.92.078 1.614.78 1.389 1.863l-3.314 13.241 14.481-7.202c.285-.12.279-.216.955-.129 1.217.321 1.665 2.067.381 2.815l-14.854 7.388 13.367 7.502c.923.675.726.941.647 1.467-.145.971-1.189 1.61-2.217 1.086l-15.047-8.439-48.738 24.242-.027.011c-1.567.706-3.645-2.249-5.505-4.584-7.467-9.369-11.344-21.453-18.745-30.288-2.946-3.519-7.123-6.141-12.095-6.009 6.202 15.949 12.568 31.94 20.646 46.939a86.684 86.684 0 0 0 2.2 3.868l49.713-16.631 3.156-10.836a1.552 1.552 0 0 1 1.544-1.077c.327.034.379.068.517.13.66.3 1.038.924.82 1.786l-2.575 8.839 13.069-4.373c.218-.057.07-.076.581-.073 1.374.187 1.923 2.283.371 2.918l-12.845 4.298 10.328 6.737c1.189.97.126 3.566-1.726 2.451l-12.231-7.974-50.416 16.866c-.384.122-.842.174-1.246.076-.463-.112-.754-.241-1.53-.75-17.802-11.668-38.68-18.281-58.98-23.428-9.923-2.516-20.222-3.179-30.458-4.087-13.142-1.166-26.321-2.04-39.519-2.737 0 0-.833-.001-1.431-.399zM138.629 518.602c22.07 48.964 64.257 88.231 114.724 106.304 60.817 21.781 132.315 11.499 184.591-29.106 50.343-39.104 79.638-103.673 76.403-168.19-1.186-23.668-6.676-47.077-15.985-68.829l-.168-.388-359.565 160.209z"/><g><path d="M615.549 348.87c-.143 21.331 12.356 46.545 44.451 71.535-74.923-29.766-161-64-161-64l163-80s-33.734 17.257-43.708 53.114c0 0-2.669 8.237-2.743 19.351z" fill="#9e001c"/><circle cx="570" cy="342.405" r="11.532" fill="#fff"/><path d="M570 330.872c6.365 0 11.532 5.168 11.532 11.533 0 6.365-5.167 11.532-11.532 11.532s-11.532-5.167-11.532-11.532 5.167-11.533 11.532-11.533zm-6.994 6.24a8.732 8.732 0 0 0-1.778 5.293c0 4.841 3.931 8.772 8.772 8.772s8.772-3.931 8.772-8.772a8.732 8.732 0 0 0-1.778-5.293 7.004 7.004 0 0 1-6.994 7.293 7.004 7.004 0 0 1-6.994-7.293z"/><path d="M617.281 349.606c-.028 3.668.221 7.302.873 10.556 4.107 20.505 18.04 37.509 33.01 50.923a187.433 187.433 0 0 0 9.385 7.846s1.045.721.942 1.642c-.102.903-1.065 1.504-2.045 1.226a608468.66 608468.66 0 0 1-146.38-58.186l-14.62-5.814c-.737-.379-.699-.524-.814-.778-.315-.701.003-1.529.707-1.963l163-80c.335-.123.114-.183.911-.132 1.596.443 1.812 2.001-.972 3.591-18.632 10.761-34.061 28.064-40.667 48.496 5.592-2.179 11.246-4.363 16.322-4.29 4.53.142 6.054 6.708 5.736 11.055-.069.935-.155 1.868-.23 2.803-.19 2.494-.628 5.546 1.224 6.478.919.462 6.686-2.386 11.521-5.165 4.687-2.707 9.326-6.387 14.224-7.209 1.184-.198 2.625.046 3.054 1.313.516 1.526-1.724 4.917-3.415 7.435a99.808 99.808 0 0 1-1.592 2.295c-6.303 8.833-13.392 17.94-22.302 22.683-3.719 1.979-8.883 2.087-11.492-1.397-2.856-3.815-.934-9.604-1.961-14.629-.347-1.695-1.697-3.266-3.763-3.032-3.788.43-7.299 2.331-10.656 4.253zm-114.584 6.655c49.625 19.735 99.252 39.464 148.882 59.184-23.407-20.176-42.853-47.874-35.974-81.351 3.808-18.532 14.925-35.128 29.548-47.697l.144-.124-142.6 69.988z"/></g><g><path d="M483.129 357.405H107.541l86.007 32.467-72.79 47.737 77.524 15.781-64.11 57.319 348.957-153.304z" fill="#9e001c"/><path fill="#fff" d="M204.044 357.405h9.255v124.6h-9.255zM213.411 357.405c55.26-.87 94.028 6.647 94.028 45.783 0 35.603-39.239 46.999-94.038 72.714l.01-118.497z"/><path d="M275.817 412.459c-.22 16.296-13.518 29.457-29.866 29.457-16.485 0-29.869-13.384-29.869-29.869s13.384-29.869 29.869-29.869c12.174 0 22.656 7.298 27.307 17.755l22.539-6.29c.081-.02.166-.055.466-.054 3.166.258 1.65 2.521.34 2.943l-22.262 6.213a29.658 29.658 0 0 1 1.365 6.68l23.182-4.498c.137-.021.046-.029.361-.026 2.809.254 1.345 2.703.21 2.971l-23.642 4.587z"/><path d="M213.299 475.811c15.689-7.918 29.577-14.858 29.577-31.193s-13.242-27.961-29.577-27.961v59.154zm0-59.154c16.335 0 29.577-13.242 29.577-29.577s-13.242-29.577-29.577-29.577v59.154z" fill="#9e001c"/><path d="M211.991 356.834c.154-.699.501-.838 1.398-.929a548.737 548.737 0 0 1 8.311-.065c21.22.033 43.164.62 61.964 8.885 9.966 4.381 18.768 12.088 22.558 22.168 5.336 14.19 3.054 30.963-6.77 42.842-12.021 14.535-30.458 22.429-47.612 30.326-12.583 5.793-25.274 11.332-37.803 17.199 0 0-1.494.389-1.989-.737a1.274 1.274 0 0 1-.249-.712V357.503c.015-.244.082-.47.192-.669zm2.915 61.363l-.005 55.124c12.639-6.394 27.079-13.439 26.454-29.786-.501-13.134-11.838-24.482-26.24-25.327l-.209-.011zm11.026-59.331c8.331 3.857 15.046 11.284 17.417 20.263 4.001 15.151-5.628 32.34-20.742 37.492 13.867 4.361 24.957 17.982 21.061 34.218-1.354 5.642-4.938 10.233-9.354 14.025 15.384-6.741 30.806-13.532 45.078-22.393 9.953-6.179 19.414-14.026 23.739-24.456 5.858-14.126 3.027-32.051-7.922-42.374-12.677-11.953-31.977-14.726-51.017-16.078-6.074-.431-12.18-.632-18.26-.697zm-11.021.183l-.005 56.063c12.995-.755 24.69-11.563 26.266-24.63 1.808-14.981-10.108-30.459-26.247-31.432l-.014-.001zM107.541 357.405h98.449v121.753l-71.818 31.551 64.11-57.319-77.524-15.781 72.79-47.737-86.007-32.467z"/><path d="M483.698 356.017c.98.648 1.325 1.861.034 2.761L134.775 512.082l-1.178.012-.824-.843.04-1.178.359-.482 61.882-55.327-74.595-15.185-.953-.644-.217-1.129.646-.951 70.325-46.121-83.248-31.426-.843-.798-.021-1.16.813-.828.58-.117h375.588l.569.112zm-367.936 2.888l78.315 29.563.89.918-.141 1.27-.456.47-69.743 45.74 73.954 15.054 1.028.77.055 1.283-.382.535-57.083 51.036 333.786-146.639H115.762zM414.352 337.323v-12.221l-55.559-9.259s-1.15-.462-1.253-1.48V301.57l-46.748-10.004s-1.092-.491-1.187-1.466v-28.406c.142-1.401.501-1.655 1.867-1.455l.284.103 180.298 86.796c1.184.729.981 2.682-.651 2.851l-.603-.001-.005.001H102.547l-1.06-.439-.44-1.061.44-1.06c.483-.323.49-.326 1.06-.44h358.086l-44.892-6.666H159.359c-1.305-.259-1.386-.926-1.386-.926l-.114-.574v-63.334c.154-.829.478-1.572 1.905-1.444l195.29 54.839.926.754.081 1.193-.815.873-.598.124H177.704l-1.061-.439-.439-1.061v-29.787c.186-.986.581-1.584 1.938-1.434l50.384 15.386.886.73.11 1.143-.73.886c-.556.168-.564.169-1.142.11l-48.446-14.794v26.26h164.554l-182.899-51.36v59.855h253.493z"/></g><g fill-rule="nonzero"><path d="M331.445 174.273c0 .566-.03 1.058-.09 1.476-.06.417-.156.752-.291 1.006-.134.253-.298.44-.492.559-.193.119-.41.179-.648.179h-16.281v50.184c0 .238-.059.447-.179.626-.119.179-.328.32-.626.425a6.848 6.848 0 0 1-1.185.268c-.492.075-1.111.112-1.856.112-.716 0-1.327-.037-1.834-.112-.507-.075-.91-.164-1.208-.268-.298-.105-.507-.246-.626-.425a1.105 1.105 0 0 1-.179-.626v-50.184h-16.28c-.239 0-.455-.06-.649-.179s-.35-.306-.47-.559c-.119-.254-.216-.589-.29-1.006a8.467 8.467 0 0 1-.112-1.476c0-.567.037-1.066.112-1.499.074-.432.171-.783.29-1.051.12-.268.276-.462.47-.581.194-.12.41-.179.649-.179h40.254c.238 0 .455.059.648.179.194.119.358.313.492.581.135.268.231.619.291 1.051.06.433.09.932.09 1.499zM367.065 225.664a9.69 9.69 0 0 1-.089 1.409c-.06.402-.164.738-.313 1.006s-.321.462-.514.582c-.194.119-.41.178-.649.178h-27.775c-.686 0-1.335-.231-1.946-.693-.611-.462-.917-1.275-.917-2.437v-51.615c0-1.163.306-1.976.917-2.438.611-.462 1.26-.693 1.946-.693h27.462c.238 0 .455.059.648.179.194.119.351.313.47.581.119.268.216.604.291 1.006.074.403.112.902.112 1.499 0 .537-.038 1.006-.112 1.409-.075.402-.172.73-.291.984-.119.253-.276.44-.47.559-.193.119-.41.179-.648.179h-22.632v18.159h19.412c.238 0 .454.067.648.201s.358.321.492.559c.134.239.231.567.291.984.059.418.089.91.089 1.476 0 .537-.03.999-.089 1.387-.06.387-.157.7-.291.939-.134.239-.298.41-.492.514-.194.105-.41.157-.648.157h-19.412v20.708H365.5c.239 0 .455.06.649.179.193.12.365.306.514.559.149.254.253.582.313.984.06.403.089.902.089 1.499zM430.059 227.14c-.119.417-.298.753-.537 1.006-.238.254-.566.447-.984.582-.417.134-.931.231-1.543.29-.611.06-1.364.09-2.258.09-.925 0-1.707-.03-2.348-.09-.642-.059-1.171-.156-1.588-.29-.418-.135-.731-.328-.94-.582-.208-.253-.372-.589-.492-1.006l-12.121-43.698h-.089l-11.182 43.698c-.089.417-.238.753-.447 1.006-.209.254-.507.447-.895.582-.387.134-.887.231-1.498.29-.611.06-1.394.09-2.348.09-.984 0-1.804-.03-2.46-.09-.656-.059-1.193-.156-1.61-.29-.418-.135-.738-.328-.962-.582-.223-.253-.38-.589-.469-1.006l-15.297-53.449c-.179-.686-.276-1.222-.291-1.61-.015-.388.105-.686.358-.895.253-.208.663-.342 1.23-.402s1.327-.09 2.281-.09c.924 0 1.655.023 2.192.068.536.044.946.126 1.23.246.283.119.477.283.581.491.104.209.186.478.246.806l13.016 48.484h.044l12.345-48.395c.089-.328.201-.604.335-.827.135-.224.351-.396.649-.515.298-.119.723-.208 1.275-.268.551-.06 1.274-.09 2.169-.09.835 0 1.498.03 1.99.09s.887.149 1.186.268c.298.119.514.291.648.515.134.223.246.499.336.827l13.284 48.395h.089l12.747-48.44a9.31 9.31 0 0 1 .269-.782c.089-.224.275-.396.559-.515.283-.119.685-.208 1.207-.268.522-.06 1.215-.09 2.08-.09.895 0 1.603.038 2.125.112.521.075.902.216 1.14.425.239.209.35.507.336.895-.015.387-.097.924-.246 1.61l-15.342 53.404zM490.369 226.111c.239.656.366 1.185.381 1.588.014.402-.097.708-.336.917-.238.209-.634.343-1.185.402-.552.06-1.29.09-2.214.09-.924 0-1.662-.023-2.214-.067-.552-.045-.969-.12-1.252-.224-.284-.104-.492-.246-.627-.425a3.447 3.447 0 0 1-.38-.671l-4.965-14.089h-24.063l-4.741 13.91a2.33 2.33 0 0 1-.357.694c-.15.193-.366.357-.649.492-.283.134-.686.231-1.208.29-.521.06-1.2.09-2.035.09-.864 0-1.573-.037-2.124-.112-.552-.075-.94-.216-1.163-.425-.224-.209-.328-.514-.313-.917.015-.402.141-.932.38-1.588l19.411-53.761a2.36 2.36 0 0 1 .47-.806c.194-.208.477-.372.85-.491.373-.12.85-.202 1.431-.246.582-.045 1.32-.068 2.214-.068.954 0 1.744.023 2.371.068.626.044 1.133.126 1.52.246.388.119.686.29.895.514.209.223.373.499.492.827l19.411 53.762zm-24.913-47.455h-.044l-9.974 28.849h20.127l-10.109-28.849z"/></g></g></svg>